<svg width="16" height="16" viewBox="0 0 16 16" fill="none" xmlns="http://www.w3.org/2000/svg">
<path fill-rule="evenodd" clip-rule="evenodd" d="M7.99998 1.8335C4.59422 1.8335 1.83331 4.59441 1.83331 8.00016C1.83331 11.4059 4.59422 14.1668 7.99998 14.1668C11.4057 14.1668 14.1666 11.4059 14.1666 8.00016C14.1666 4.59441 11.4057 1.8335 7.99998 1.8335ZM0.833313 8.00016C0.833313 4.04212 4.04194 0.833496 7.99998 0.833496C11.958 0.833496 15.1666 4.04212 15.1666 8.00016C15.1666 11.9582 11.958 15.1668 7.99998 15.1668C4.04194 15.1668 0.833313 11.9582 0.833313 8.00016Z" fill="#444444"/>
<path d="M6 6.00282C6.15674 5.55727 6.4661 5.18156 6.8733 4.94224C7.2805 4.70293 7.75926 4.61545 8.22478 4.6953C8.69031 4.77514 9.11254 5.01717 9.41672 5.37851C9.72089 5.73984 9.88737 6.19717 9.88667 6.66949C9.88667 8.00282 7.88667 8.66949 7.88667 8.66949" stroke="#444444" stroke-linecap="round" stroke-linejoin="round"/>
<ellipse cx="7.99998" cy="11.3332" rx="0.666667" ry="0.666667" fill="#444444"/>
</svg>
