<svg width="16" height="16" viewBox="0 0 16 16" fill="none" xmlns="http://www.w3.org/2000/svg">
<path d="M11.42 10L14.33 4.91L12.8 4C12.5062 4.16422 12.1828 4.26863 11.8484 4.30723C11.514 4.34582 11.1753 4.31783 10.8517 4.22487C10.5282 4.1319 10.2263 3.9758 9.96343 3.76558C9.70054 3.55535 9.48187 3.29516 9.32004 3C9.13083 2.65175 9.02152 2.26575 9.00004 1.87V1.82L7.48004 1L4.58004 6.1L1.67004 11.14L3.19004 12C3.55254 11.812 3.95201 11.7061 4.36004 11.69C4.69497 11.678 5.02897 11.7321 5.34297 11.8492C5.65696 11.9664 5.94479 12.1443 6.18998 12.3728C6.43516 12.6012 6.63291 12.8758 6.77191 13.1807C6.91091 13.4857 6.98843 13.8151 7.00004 14.15C7.00004 14.15 7.00004 14.15 7.00004 14.15L8.53004 15.03L11.42 10Z" stroke="#444444" stroke-linecap="round" stroke-linejoin="round"/>
<path d="M12.4 8.2298L5.60004 4.2998" stroke="#444444" stroke-linecap="round" stroke-linejoin="round"/>
</svg>
