<svg width="16" height="16" viewBox="0 0 16 16" fill="none" xmlns="http://www.w3.org/2000/svg">
<path d="M11.3334 14V12.6667C11.3334 11.9594 11.0524 11.2811 10.5523 10.781C10.0522 10.281 9.37393 10 8.66669 10H3.33335C2.62611 10 1.94783 10.281 1.44774 10.781C0.947639 11.2811 0.666687 11.9594 0.666687 12.6667V14" stroke="#444444" stroke-linecap="round" stroke-linejoin="round"/>
<path d="M5.99998 7.33333C7.47274 7.33333 8.66665 6.13943 8.66665 4.66667C8.66665 3.19391 7.47274 2 5.99998 2C4.52722 2 3.33331 3.19391 3.33331 4.66667C3.33331 6.13943 4.52722 7.33333 5.99998 7.33333Z" stroke="#444444" stroke-linecap="round" stroke-linejoin="round"/>
<path d="M15.3333 13.9998V12.6664C15.3329 12.0756 15.1362 11.5016 14.7742 11.0346C14.4122 10.5677 13.9054 10.2341 13.3333 10.0864" stroke="#444444" stroke-linecap="round" stroke-linejoin="round"/>
<path d="M10.6667 2.08643C11.2403 2.23329 11.7487 2.56689 12.1118 3.03463C12.4748 3.50237 12.6719 4.07765 12.6719 4.66976C12.6719 5.26187 12.4748 5.83715 12.1118 6.30488C11.7487 6.77262 11.2403 7.10622 10.6667 7.25309" stroke="#444444" stroke-linecap="round" stroke-linejoin="round"/>
</svg>
